<svg width="87" height="85" viewBox="0 0 87 85" fill="none" xmlns="http://www.w3.org/2000/svg">
<path d="M10.5682 62L1.02273 27.0909H5.31818L12.6136 55.5227H12.9545L20.3864 27.0909H25.1591L32.5909 55.5227H32.9318L40.2273 27.0909H44.5227L34.9773 62H30.6136L22.9091 34.1818H22.6364L14.9318 62H10.5682Z" fill="#024089"/>
<mask id="path-2-outside-1_17_2" maskUnits="userSpaceOnUse" x="34.553" y="14.5593" width="46.6911" height="56.4998" fill="black">
<rect fill="white" x="34.553" y="14.5593" width="46.6911" height="56.4998"/>
<path d="M36.3953 61.2893L48.6794 16.3941L63.8491 20.5449C67.3712 21.5086 70.0762 22.932 71.9643 24.8153C73.871 26.6879 75.0712 28.8464 75.5649 31.2906C76.0585 33.7348 75.9434 36.2795 75.2197 38.9247C74.4959 41.5699 73.2974 43.826 71.6241 45.693C69.9654 47.564 67.8422 48.8366 65.2543 49.5109C62.6704 50.1705 59.632 50.0225 56.1392 49.0668L45.2662 46.0917L46.5858 41.269L57.2834 44.1961C59.6948 44.8559 61.7452 44.9692 63.4345 44.536C65.1239 44.1029 66.4913 43.2675 67.5368 42.0299C68.601 40.7816 69.379 39.2587 69.8708 37.4611C70.3627 35.6636 70.4664 33.964 70.182 32.3625C69.9123 30.765 69.1493 29.3624 67.8932 28.1547C66.6411 26.9324 64.7947 25.9874 62.3541 25.3196L52.7964 22.7044L41.8318 62.7769L36.3953 61.2893Z"/>
</mask>
<path d="M36.3953 61.2893L48.6794 16.3941L63.8491 20.5449C67.3712 21.5086 70.0762 22.932 71.9643 24.8153C73.871 26.6879 75.0712 28.8464 75.5649 31.2906C76.0585 33.7348 75.9434 36.2795 75.2197 38.9247C74.4959 41.5699 73.2974 43.826 71.6241 45.693C69.9654 47.564 67.8422 48.8366 65.2543 49.5109C62.6704 50.1705 59.632 50.0225 56.1392 49.0668L45.2662 46.0917L46.5858 41.269L57.2834 44.1961C59.6948 44.8559 61.7452 44.9692 63.4345 44.536C65.1239 44.1029 66.4913 43.2675 67.5368 42.0299C68.601 40.7816 69.379 39.2587 69.8708 37.4611C70.3627 35.6636 70.4664 33.964 70.182 32.3625C69.9123 30.765 69.1493 29.3624 67.8932 28.1547C66.6411 26.9324 64.7947 25.9874 62.3541 25.3196L52.7964 22.7044L41.8318 62.7769L36.3953 61.2893Z" fill="#024089"/>
<path d="M36.3953 61.2893L35.4307 61.0254L35.1668 61.99L36.1313 62.2539L36.3953 61.2893ZM48.6794 16.3941L48.9434 15.4296L47.9788 15.1657L47.7149 16.1302L48.6794 16.3941ZM71.9643 24.8153L71.2581 25.5233L71.2636 25.5287L71.9643 24.8153ZM75.5649 31.2906L74.5847 31.4885L75.5649 31.2906ZM71.6241 45.693L70.8794 45.0256L70.8758 45.0296L71.6241 45.693ZM65.2543 49.5109L65.5016 50.4798L65.5064 50.4786L65.2543 49.5109ZM45.2662 46.0917L44.3016 45.8278L44.0377 46.7923L45.0022 47.0562L45.2662 46.0917ZM46.5858 41.269L46.8497 40.3044L45.8851 40.0405L45.6212 41.0051L46.5858 41.269ZM63.4345 44.536L63.1862 43.5674L63.4345 44.536ZM67.5368 42.0299L66.7758 41.3811L66.7729 41.3845L67.5368 42.0299ZM70.182 32.3625L69.196 32.529L69.1974 32.5373L70.182 32.3625ZM67.8932 28.1547L67.1947 28.8703L67.2001 28.8756L67.8932 28.1547ZM52.7964 22.7044L53.0603 21.7399L52.0958 21.4759L51.8318 22.4405L52.7964 22.7044ZM41.8318 62.7769L41.5679 63.7414L42.5324 64.0053L42.7963 63.0408L41.8318 62.7769ZM37.3598 61.5533L49.644 16.6581L47.7149 16.1302L35.4307 61.0254L37.3598 61.5533ZM48.4155 17.3587L63.5852 21.5094L64.113 19.5803L48.9434 15.4296L48.4155 17.3587ZM63.5852 21.5094C66.9991 22.4435 69.5298 23.7994 71.2581 25.5233L72.6705 24.1073C70.6227 22.0646 67.7432 20.5736 64.113 19.5803L63.5852 21.5094ZM71.2636 25.5287C73.0385 27.2719 74.1335 29.2545 74.5847 31.4885L76.5451 31.0926C76.009 28.4382 74.7036 26.104 72.665 24.1018L71.2636 25.5287ZM74.5847 31.4885C75.0444 33.7649 74.9419 36.1509 74.2551 38.6608L76.1842 39.1886C76.945 36.4081 77.0726 33.7047 76.5451 31.0926L74.5847 31.4885ZM74.2551 38.6608C73.5684 41.1705 72.4396 43.2847 70.8794 45.0256L72.3688 46.3604C74.1551 44.3672 75.4234 41.9692 76.1842 39.1886L74.2551 38.6608ZM70.8758 45.0296C69.358 46.7417 67.4121 47.9153 65.0022 48.5432L65.5064 50.4786C68.2722 49.758 70.5729 48.3862 72.3724 46.3563L70.8758 45.0296ZM65.0069 48.5419C62.6405 49.1461 59.7862 49.0279 56.4031 48.1022L55.8753 50.0313C59.4779 51.0171 62.7003 51.1949 65.5016 50.4798L65.0069 48.5419ZM56.4031 48.1022L45.5301 45.1271L45.0022 47.0562L55.8753 50.0313L56.4031 48.1022ZM46.2307 46.3556L47.5503 41.5329L45.6212 41.0051L44.3016 45.8278L46.2307 46.3556ZM46.3218 42.2335L57.0195 45.1606L57.5474 43.2315L46.8497 40.3044L46.3218 42.2335ZM57.0195 45.1606C59.5301 45.8475 61.7679 45.9957 63.6829 45.5047L63.1862 43.5674C61.7224 43.9427 59.8595 43.8642 57.5474 43.2315L57.0195 45.1606ZM63.6829 45.5047C65.5573 45.0241 67.1107 44.0839 68.3008 42.6752L66.7729 41.3845C65.8719 42.4511 64.6905 43.1817 63.1862 43.5674L63.6829 45.5047ZM68.2979 42.6786C69.4695 41.3043 70.31 39.645 70.8354 37.7251L68.9063 37.1972C68.4479 38.8724 67.7325 40.2589 66.7758 41.3811L68.2979 42.6786ZM70.8354 37.7251C71.3606 35.8054 71.4804 33.955 71.1666 32.1877L69.1974 32.5373C69.4524 33.9731 69.3647 35.5218 68.9063 37.1972L70.8354 37.7251ZM71.1681 32.196C70.8598 30.3707 69.9846 28.7782 68.5863 27.4338L67.2001 28.8756C68.3141 29.9465 68.9647 31.1592 69.196 32.529L71.1681 32.196ZM68.5917 27.4391C67.176 26.0571 65.154 25.0489 62.6181 24.3551L62.0902 26.2841C64.4355 26.9258 66.1062 27.8077 67.1947 28.8703L68.5917 27.4391ZM62.6181 24.3551L53.0603 21.7399L52.5325 23.669L62.0902 26.2841L62.6181 24.3551ZM51.8318 22.4405L40.8672 62.513L42.7963 63.0408L53.7609 22.9683L51.8318 22.4405ZM42.0957 61.8123L36.6592 60.3248L36.1313 62.2539L41.5679 63.7414L42.0957 61.8123Z" fill="white" mask="url(#path-2-outside-1_17_2)"/>
<path d="M31 65H42L35 63H31V65Z" fill="#024089"/>
</svg>
