<svg width="92" height="87" viewBox="0 0 92 87" fill="none" xmlns="http://www.w3.org/2000/svg">
<circle cx="43.0112" cy="43.9888" r="43.0112" fill="#024089"/>
<path d="M17.4109 61.6404L7.86544 26.7313H12.1609L19.4563 55.1632H19.7973L27.2291 26.7313H32.0018L39.4336 55.1632H39.7745L47.07 26.7313H51.3654L41.82 61.6404H37.4564L29.7518 33.8223H29.4791L21.7745 61.6404H17.4109Z" fill="white"/>
<mask id="path-3-outside-1_9_2" maskUnits="userSpaceOnUse" x="40.3323" y="14.5593" width="46.6911" height="56.4998" fill="black">
<rect fill="white" x="40.3323" y="14.5593" width="46.6911" height="56.4998"/>
<path d="M42.1746 61.2893L54.4587 16.3941L69.6284 20.5449C73.1505 21.5086 75.8555 22.932 77.7436 24.8153C79.6503 26.6879 80.8505 28.8464 81.3442 31.2906C81.8378 33.7348 81.7227 36.2795 80.999 38.9247C80.2752 41.5699 79.0767 43.826 77.4034 45.693C75.7447 47.564 73.6215 48.8366 71.0336 49.5109C68.4497 50.1705 65.4113 50.0225 61.9185 49.0668L51.0455 46.0917L52.365 41.269L63.0627 44.1961C65.4741 44.8559 67.5245 44.9692 69.2138 44.536C70.9032 44.1029 72.2706 43.2675 73.3161 42.0299C74.3803 40.7816 75.1583 39.2587 75.6501 37.4611C76.142 35.6636 76.2457 33.964 75.9613 32.3625C75.6916 30.765 74.9286 29.3624 73.6725 28.1547C72.4204 26.9324 70.574 25.9874 68.1334 25.3196L58.5757 22.7044L47.6111 62.7769L42.1746 61.2893Z"/>
</mask>
<path d="M42.1746 61.2893L41.21 61.0254L40.9461 61.99L41.9106 62.2539L42.1746 61.2893ZM54.4587 16.3941L54.7227 15.4296L53.7581 15.1657L53.4942 16.1302L54.4587 16.3941ZM77.7436 24.8153L77.0374 25.5233L77.0429 25.5287L77.7436 24.8153ZM81.3442 31.2906L80.364 31.4885L81.3442 31.2906ZM77.4034 45.693L76.6587 45.0256L76.6551 45.0296L77.4034 45.693ZM71.0336 49.5109L71.2809 50.4798L71.2857 50.4786L71.0336 49.5109ZM51.0455 46.0917L50.0809 45.8278L49.817 46.7923L50.7815 47.0562L51.0455 46.0917ZM52.365 41.269L52.629 40.3044L51.6644 40.0405L51.4005 41.0051L52.365 41.269ZM69.2138 44.536L68.9655 43.5674L69.2138 44.536ZM73.3161 42.0299L72.5551 41.3811L72.5522 41.3845L73.3161 42.0299ZM75.9613 32.3625L74.9752 32.529L74.9767 32.5373L75.9613 32.3625ZM73.6725 28.1547L72.974 28.8703L72.9794 28.8756L73.6725 28.1547ZM58.5757 22.7044L58.8396 21.7399L57.8751 21.4759L57.6111 22.4405L58.5757 22.7044ZM47.6111 62.7769L47.3472 63.7414L48.3117 64.0053L48.5756 63.0408L47.6111 62.7769ZM43.1391 61.5533L55.4233 16.6581L53.4942 16.1302L41.21 61.0254L43.1391 61.5533ZM54.1948 17.3587L69.3645 21.5094L69.8923 19.5803L54.7227 15.4296L54.1948 17.3587ZM69.3645 21.5094C72.7784 22.4435 75.3091 23.7994 77.0374 25.5233L78.4498 24.1073C76.4019 22.0646 73.5225 20.5736 69.8923 19.5803L69.3645 21.5094ZM77.0429 25.5287C78.8178 27.2719 79.9128 29.2545 80.364 31.4885L82.3244 31.0926C81.7883 28.4382 80.4829 26.104 78.4443 24.1018L77.0429 25.5287ZM80.364 31.4885C80.8237 33.7649 80.7212 36.1509 80.0344 38.6608L81.9635 39.1886C82.7243 36.4081 82.8519 33.7047 82.3244 31.0926L80.364 31.4885ZM80.0344 38.6608C79.3477 41.1705 78.2189 43.2847 76.6587 45.0256L78.1481 46.3604C79.9344 44.3672 81.2027 41.9692 81.9635 39.1886L80.0344 38.6608ZM76.6551 45.0296C75.1373 46.7417 73.1914 47.9153 70.7814 48.5432L71.2857 50.4786C74.0515 49.758 76.3522 48.3862 78.1517 46.3563L76.6551 45.0296ZM70.7862 48.5419C68.4198 49.1461 65.5655 49.0279 62.1824 48.1022L61.6546 50.0313C65.2572 51.0171 68.4796 51.1949 71.2809 50.4798L70.7862 48.5419ZM62.1824 48.1022L51.3094 45.1271L50.7815 47.0562L61.6546 50.0313L62.1824 48.1022ZM52.01 46.3556L53.3296 41.5329L51.4005 41.0051L50.0809 45.8278L52.01 46.3556ZM52.1011 42.2335L62.7988 45.1606L63.3266 43.2315L52.629 40.3044L52.1011 42.2335ZM62.7988 45.1606C65.3094 45.8475 67.5472 45.9957 69.4622 45.5047L68.9655 43.5674C67.5017 43.9427 65.6388 43.8642 63.3266 43.2315L62.7988 45.1606ZM69.4622 45.5047C71.3366 45.0241 72.89 44.0839 74.0801 42.6752L72.5522 41.3845C71.6512 42.4511 70.4698 43.1817 68.9655 43.5674L69.4622 45.5047ZM74.0771 42.6786C75.2488 41.3043 76.0893 39.645 76.6147 37.7251L74.6856 37.1972C74.2272 38.8724 73.5118 40.2589 72.5551 41.3811L74.0771 42.6786ZM76.6147 37.7251C77.1399 35.8054 77.2597 33.955 76.9459 32.1877L74.9767 32.5373C75.2317 33.9731 75.144 35.5218 74.6856 37.1972L76.6147 37.7251ZM76.9474 32.196C76.6391 30.3707 75.7639 28.7782 74.3656 27.4338L72.9794 28.8756C74.0934 29.9465 74.744 31.1592 74.9753 32.529L76.9474 32.196ZM74.371 27.4391C72.9553 26.0571 70.9333 25.0489 68.3974 24.3551L67.8695 26.2841C70.2148 26.9258 71.8855 27.8077 72.974 28.8703L74.371 27.4391ZM68.3974 24.3551L58.8396 21.7399L58.3118 23.669L67.8695 26.2841L68.3974 24.3551ZM57.6111 22.4405L46.6465 62.513L48.5756 63.0408L59.5402 22.9683L57.6111 22.4405ZM47.875 61.8123L42.4385 60.3248L41.9106 62.2539L47.3472 63.7414L47.875 61.8123Z" fill="white" mask="url(#path-3-outside-1_9_2)"/>
<path d="M37.1461 63.5393H47.8989L41.0562 61.5843H37.1461V63.5393Z" fill="white"/>
</svg>
